<svg width="16" height="17" viewBox="0 0 16 17" fill="none" xmlns="http://www.w3.org/2000/svg">
<path d="M11 1.5H5C2.79086 1.5 1 3.29086 1 5.5V11.5C1 13.7091 2.79086 15.5 5 15.5H11C13.2091 15.5 15 13.7091 15 11.5V5.5C15 3.29086 13.2091 1.5 11 1.5Z" stroke="#737373" stroke-width="2"/>
<path d="M11.9004 4.6001V4.6101" stroke="#737373" stroke-width="2" stroke-linecap="round"/>
<path d="M8 11.5C9.65685 11.5 11 10.1569 11 8.5C11 6.84315 9.65685 5.5 8 5.5C6.34315 5.5 5 6.84315 5 8.5C5 10.1569 6.34315 11.5 8 11.5Z" stroke="#737373" stroke-width="2"/>
</svg>
