<svg width="14" height="14" viewBox="0 0 14 14" fill="none" xmlns="http://www.w3.org/2000/svg">
<path d="M7.523 10.7204C7.59292 10.7901 7.6484 10.8729 7.68625 10.964C7.7241 11.0552 7.74359 11.1529 7.74359 11.2517C7.74359 11.3504 7.7241 11.4481 7.68625 11.5393C7.6484 11.6304 7.59292 11.7132 7.523 11.7829L7.15175 12.1542C6.44826 12.8576 5.49413 13.2529 4.49925 13.2529C3.50437 13.2529 2.55024 12.8576 1.84675 12.1542C1.14326 11.4507 0.748047 10.4965 0.748047 9.50166C0.748047 8.50678 1.14326 7.55264 1.84675 6.84916L3.35425 5.34228C4.03018 4.66468 4.93961 4.27117 5.89626 4.24236C6.85292 4.21354 7.78439 4.5516 8.49987 5.18728C8.57374 5.25294 8.63395 5.33251 8.67707 5.42144C8.72019 5.51037 8.74537 5.60693 8.75117 5.70559C8.75698 5.80425 8.74329 5.90309 8.7109 5.99646C8.6785 6.08984 8.62803 6.17591 8.56237 6.24978C8.49671 6.32365 8.41714 6.38386 8.32821 6.42698C8.23928 6.4701 8.14273 6.49528 8.04407 6.50108C7.94541 6.50689 7.84657 6.4932 7.75319 6.46081C7.65982 6.42841 7.57374 6.37794 7.49987 6.31228C7.07082 5.93124 6.5124 5.72852 5.93882 5.7456C5.36524 5.76268 4.81987 5.99826 4.41425 6.40416L2.908 7.90916C2.48597 8.33118 2.24888 8.90357 2.24888 9.50041C2.24888 10.0972 2.48597 10.6696 2.908 11.0917C3.33002 11.5137 3.90241 11.7508 4.49925 11.7508C5.09608 11.7508 5.66847 11.5137 6.0905 11.0917L6.46175 10.7204C6.5314 10.6507 6.61412 10.5954 6.70517 10.5576C6.79622 10.5199 6.89381 10.5004 6.99237 10.5004C7.09094 10.5004 7.18853 10.5199 7.27958 10.5576C7.37063 10.5954 7.45334 10.6507 7.523 10.7204ZM12.153 1.84541C11.4489 1.143 10.495 0.748535 9.5005 0.748535C8.50598 0.748535 7.55206 1.143 6.848 1.84541L6.47675 2.21666C6.33585 2.35755 6.2567 2.54865 6.2567 2.74791C6.2567 2.94717 6.33585 3.13826 6.47675 3.27916C6.61764 3.42005 6.80874 3.49921 7.008 3.49921C7.20726 3.49921 7.39835 3.42005 7.53925 3.27916L7.9105 2.90791C8.33252 2.48588 8.90491 2.24879 9.50175 2.24879C10.0986 2.24879 10.671 2.48588 11.093 2.90791C11.515 3.32993 11.7521 3.90232 11.7521 4.49916C11.7521 5.09599 11.515 5.66838 11.093 6.09041L9.58612 7.59791C9.18015 8.00364 8.63447 8.23888 8.06075 8.25549C7.48703 8.27211 6.92865 8.06884 6.49987 7.68728C6.426 7.62162 6.33993 7.57115 6.24655 7.53876C6.15318 7.50636 6.05434 7.49268 5.95568 7.49848C5.85702 7.50429 5.76046 7.52947 5.67153 7.57258C5.5826 7.6157 5.50303 7.67591 5.43737 7.74978C5.37171 7.82365 5.32124 7.90973 5.28885 8.0031C5.25646 8.09648 5.24277 8.19532 5.24857 8.29398C5.25438 8.39264 5.27956 8.48919 5.32267 8.57812C5.36579 8.66705 5.426 8.74662 5.49987 8.81228C6.21486 9.44783 7.14571 9.7861 8.10191 9.75786C9.05811 9.72963 9.96738 9.33703 10.6436 8.66041L12.1511 7.15353C12.8543 6.44964 13.2495 5.49546 13.2499 4.50048C13.2502 3.5055 12.8557 2.55104 12.153 1.84666V1.84541Z" fill="white"/>
</svg>
